<svg width="410" height="137" viewBox="0 0 410 137" fill="none" xmlns="http://www.w3.org/2000/svg">
<mask id="mask0_11_8" style="mask-type:luminance" maskUnits="userSpaceOnUse" x="0" y="0" width="410" height="137">
<path d="M410 0H0V136.667H410V0Z" fill="white"/>
</mask>
<g mask="url(#mask0_11_8)">
<path fill-rule="evenodd" clip-rule="evenodd" d="M184.476 99.5334V95.2066H194.776C195.568 95.2066 196.279 95.1131 196.885 94.9376C197.479 94.762 197.992 94.493 198.423 94.1539C198.854 93.8032 199.204 93.3821 199.483 92.891C199.658 92.5634 199.809 92.2128 199.926 91.8267H189.475C188.438 91.8267 187.517 91.6746 186.69 91.3821C185.851 91.09 185.129 90.6338 184.523 90.0372C183.917 89.441 183.463 88.7393 183.159 87.9441C182.857 87.1604 182.717 86.2831 182.717 85.3128C182.717 84.342 182.868 83.4533 183.159 82.6581C183.463 81.8509 183.917 81.1492 184.523 80.553C185.129 79.9448 185.851 79.4887 186.69 79.1961C187.505 78.904 188.438 78.752 189.475 78.752H195.184C196.326 78.752 197.386 78.857 198.376 79.0791C199.366 79.3016 200.275 79.6287 201.102 80.0733C201.93 80.5175 202.664 81.0441 203.305 81.6753C203.946 82.307 204.482 83.0202 204.924 83.8274C205.367 84.6342 205.693 85.4999 205.915 86.4471C206.136 87.3825 206.241 88.3767 206.241 89.441C206.241 90.5053 206.136 91.4991 205.915 92.4348C205.693 93.3706 205.367 94.2474 204.924 95.0546C204.482 95.8613 203.946 96.575 203.305 97.2062C202.664 97.8263 201.93 98.364 201.102 98.8202C200.275 99.2648 199.367 99.6039 198.364 99.8259C197.374 100.048 196.314 100.154 195.172 100.154H184.476V99.5688V99.5334ZM171.217 107.837H133.502L145.257 99.0192L141.774 94.657L121.873 110.831C128.643 116.281 135.412 121.731 142.182 127.169L145.665 122.806L133.14 113.404H171.59L159.041 122.806L162.525 127.169L182.868 110.831C176.227 105.44 169.574 100.048 162.933 94.657L159.449 99.0192L171.228 107.837H171.217ZM16.6032 124.877C13.5739 124.877 11.3484 124.116 9.9153 122.596C8.49383 121.075 7.77146 119.076 7.77146 116.597V103.919H0V97.8964H7.78312V89.6165H15.3565V97.8964H26.5302V103.919H15.3565V115.661C15.3565 117.79 16.4051 118.854 18.4907 118.854H27.9866V124.877H16.6032ZM31.9015 124.877V97.8844H52.4659C55.4956 97.8844 57.7207 98.6446 59.154 100.165C60.5754 101.685 61.298 103.686 61.298 106.165V111.766H53.6195V107.1C53.6195 105.007 52.571 103.954 50.4855 103.954H39.5797V124.865H31.9015V124.877ZM65.4689 124.877V97.8844H73.0424V124.877H65.4689ZM65.4223 93.4406V87.523H73.1009V93.4406H65.4223ZM78.7866 136.677V97.8964H98.1045C102.765 97.8964 106.4 99.0542 109.01 101.358C111.62 103.662 112.925 106.995 112.925 111.369C112.925 115.743 111.62 119.122 109.01 121.427C106.4 123.73 102.765 124.888 98.1045 124.888H86.3601V136.677H78.7866ZM98.1045 103.931H86.3601V118.865H98.1045C100.365 118.865 102.101 118.246 103.301 117.006C104.501 115.766 105.107 113.883 105.107 111.369C105.107 108.854 104.501 107.03 103.301 105.79C102.101 104.551 100.365 103.931 98.1045 103.931ZM212.195 136.677V97.8964H231.512C236.173 97.8964 239.809 99.0542 242.418 101.358C245.028 103.662 246.333 106.995 246.333 111.369C246.333 115.743 245.028 119.122 242.418 121.427C239.809 123.73 236.173 124.888 231.512 124.888H219.768V136.677H212.195ZM231.512 103.931H219.768V118.865H231.512C233.773 118.865 235.509 118.246 236.709 117.006C237.909 115.766 238.515 113.883 238.515 111.369C238.515 108.854 237.909 107.03 236.709 105.79C235.509 104.551 233.773 103.931 231.512 103.931ZM251.04 124.888V87.4175H258.614V124.888H251.04ZM271.5 124.888C268.681 124.888 266.525 124.175 265.022 122.736C263.531 121.31 262.773 119.263 262.773 116.608C262.773 113.953 263.519 111.965 265.022 110.527C266.513 109.1 268.681 108.375 271.5 108.375H291.552V107.112C291.552 104.983 290.503 103.919 288.418 103.919H266.28V97.8964H290.399C293.568 97.8964 295.805 98.6216 297.133 100.072C298.45 101.522 299.114 103.557 299.114 106.176V124.888H271.5ZM272.852 118.865H291.54V114.41H272.852C272.187 114.41 271.675 114.608 271.314 115.018C270.953 115.415 270.766 115.953 270.766 116.62C270.766 117.286 270.953 117.825 271.314 118.246C271.675 118.666 272.187 118.877 272.852 118.877V118.865ZM304.858 124.888V97.8964H328.301C331.365 97.8964 333.602 98.6566 335.012 100.177C336.422 101.697 337.121 103.697 337.121 106.176V124.888H329.547V107.077C329.547 104.983 328.499 103.931 326.413 103.931H312.42V124.888H304.847H304.858ZM356.381 125.146C351.72 125.146 348.084 123.988 345.475 121.66C342.865 119.333 341.56 115.918 341.56 111.416C341.56 106.913 342.865 103.44 345.475 101.124C348.084 98.7967 351.72 97.6389 356.381 97.6389H369.43C372.494 97.6389 374.836 98.364 376.456 99.8144C378.075 101.264 378.879 103.334 378.879 106.024C378.879 111.509 375.733 114.246 369.43 114.246H349.692C350.427 117.497 352.652 119.122 356.381 119.122H377.528V125.146H356.381ZM356.381 103.662C352.792 103.662 350.59 105.182 349.751 108.223H369.069C369.768 108.223 370.315 108.012 370.712 107.592C371.108 107.17 371.317 106.597 371.317 105.861C371.317 104.399 370.572 103.662 369.069 103.662H356.381ZM398.617 124.888C395.587 124.888 393.362 124.128 391.929 122.608C390.507 121.087 389.785 119.087 389.785 116.608V103.931H382.002V97.9079H389.785V89.628H397.358V97.9079H408.532V103.931H397.358V115.672C397.358 117.801 398.407 118.865 400.492 118.865H409.988V124.888H398.605H398.617ZM190.337 86.9733H199.902C199.786 86.5872 199.635 86.2366 199.448 85.9205C199.169 85.4294 198.807 85.0087 198.376 84.6692C197.945 84.3301 197.433 84.073 196.826 83.8975C196.209 83.7219 195.51 83.6284 194.706 83.6284H190.325C189.754 83.6284 189.347 83.7574 189.09 84.0145C188.834 84.2835 188.705 84.7046 188.705 85.3128C188.705 85.9205 188.834 86.3182 189.09 86.5872C189.347 86.8447 189.754 86.9733 190.325 86.9733H190.337Z" fill="white"/>
<path fill-rule="evenodd" clip-rule="evenodd" d="M3.85711 61.5392V0.597198L46.5244 0.421773C49.9385 0.410078 52.9212 0.760925 55.4726 1.48601C58.106 2.22279 60.2965 3.35719 62.0322 4.85413C63.7802 6.3628 65.085 8.24568 65.9588 10.5145C66.8095 12.7365 67.2405 15.2977 67.2405 18.198C67.2405 21.0984 66.7395 23.6829 65.7491 25.8699C64.9803 27.5657 63.9314 29.0158 62.5801 30.2321C63.3023 30.7349 63.9664 31.2729 64.5609 31.8577C65.5629 32.84 66.3782 33.9277 67.0077 35.1322C67.6368 36.3368 68.1143 37.7051 68.429 39.2372C68.7434 40.7458 68.895 42.3948 68.895 44.1958C68.895 50.1835 67.1708 54.7678 63.7102 57.9257C61.9741 59.5161 59.7951 60.6975 57.1622 61.4807C54.5988 62.2409 51.6045 62.627 48.1789 62.627L3.84546 62.709V61.5392H3.85711ZM44.9399 13.4967H19.5515V24.5718H44.9399C47.1769 24.5718 48.8199 24.104 49.8684 23.1567C50.8819 22.2444 51.3829 20.8177 51.3829 18.8646C51.3829 17.0402 50.8819 15.707 49.8915 14.8416C48.843 13.9411 47.1885 13.485 44.9514 13.485L44.9399 13.4967ZM46.6059 37.6467H19.5515V49.5638H46.6059C48.8315 49.5638 50.474 49.0727 51.5114 48.0784C52.5364 47.1077 53.0374 45.5877 53.0374 43.5176C53.0374 41.4475 52.5249 40.0324 51.5114 39.0968C50.4625 38.1261 48.8315 37.6467 46.5944 37.6467H46.6059ZM75.7693 61.5512V0.421773H135.832V13.6604H91.4638V24.5718H130.985V37.8104H91.4638V49.4703H135.832V62.709H75.7693V61.5392V61.5512ZM175.435 63.1417C169.971 63.1417 165.077 62.4865 160.766 61.1651C156.432 59.8437 152.692 57.8437 149.581 55.1889C146.435 52.4992 144.081 49.1777 142.508 45.2016C140.959 41.2721 140.178 36.7111 140.178 31.5302C140.178 26.3494 140.959 21.8468 142.508 17.929C144.081 13.9645 146.435 10.6431 149.569 7.965C152.68 5.31025 156.409 3.31042 160.755 1.98889C165.054 0.679061 169.947 0.0124512 175.424 0.0124512H186.283C191.782 0.0124512 196.699 0.667368 201.01 1.98889C205.367 3.32211 209.084 5.31025 212.184 7.965C215.306 10.6431 217.648 13.9645 219.21 17.929C220.759 21.8468 221.528 26.3845 221.528 31.5302C221.528 36.676 220.759 41.2604 219.21 45.1901C217.648 49.1662 215.306 52.4992 212.184 55.1774C209.084 57.8321 205.356 59.8318 201.01 61.1536C196.699 62.475 191.782 63.1297 186.283 63.1297H175.424L175.435 63.1417ZM156.129 31.5302C156.129 34.4656 156.478 37.0268 157.177 39.2255C157.725 40.9446 158.483 42.4416 159.461 43.7281L189.685 13.4733C189.405 13.4382 189.125 13.4148 188.846 13.3914C187.751 13.2979 186.585 13.2511 185.374 13.2511H176.356C172.965 13.2511 169.982 13.6253 167.419 14.3621C164.914 15.0872 162.829 16.1631 161.151 17.5899C159.496 18.9933 158.249 20.8411 157.422 23.1216C156.572 25.4606 156.14 28.2673 156.14 31.5419L156.129 31.5302ZM176.344 49.9029H185.362C188.764 49.9029 191.747 49.5288 194.287 48.7921C196.792 48.0669 198.878 46.9791 200.567 45.5407C202.221 44.1258 203.468 42.2662 204.296 39.974C205.158 37.6233 205.577 34.8165 205.577 31.5419C205.577 26.326 204.435 22.2561 202.163 19.3324L171.858 49.6808C172.161 49.7159 172.464 49.7393 172.779 49.7744C173.897 49.8679 175.085 49.9145 176.332 49.9145L176.344 49.9029ZM228.391 61.5512V0.421773H243.607L280.321 41.6346V0.421773H296.015V62.709H280.798L244.097 21.4258V62.709H228.402V61.5392L228.391 61.5512ZM337.937 60.8495L359.806 31.6121L336.562 0.421773H355.763L373.264 24.3495L390.752 0.421773H409.954L386.698 31.6121L409.965 62.7205H390.683L373.276 38.8746L355.868 62.7205H336.585L337.984 60.8495H337.937ZM318.071 61.5512V13.8241H304.894V0.5855H333.358V62.709H318.083V61.5392L318.071 61.5512Z" fill="white"/>
</g>
</svg>
