<svg width="296" height="71" viewBox="0 0 296 71" fill="none" xmlns="http://www.w3.org/2000/svg">
<path d="M99.52 30.2318C101.662 30.2318 103.226 31.8128 103.226 33.9208C103.226 36.0118 101.662 37.5928 99.52 37.5928H96.375V42.1318H95.474V30.2318H99.52ZM99.52 36.7428C101.152 36.7428 102.325 35.5528 102.325 33.9208C102.325 32.2718 101.152 31.0818 99.52 31.0818H96.375V36.7428H99.52ZM106.353 41.2818H112.303V42.1318H105.452V30.2318H112.218V31.0818H106.353V35.7058H111.793V36.5558H106.353V41.2818ZM122.03 42.1318L119.174 37.2528H115.417V42.1318H114.516V30.2318H119.208C121.146 30.2318 122.727 31.8128 122.727 33.7508C122.727 35.3658 121.622 36.7258 120.109 37.1338L123.067 42.1318H122.03ZM115.417 31.0818V36.4028H119.208C120.653 36.4028 121.826 35.2128 121.826 33.7508C121.826 32.2718 120.653 31.0818 119.208 31.0818H115.417ZM128.414 42.3188C126.187 42.3188 124.606 41.1968 124.062 39.5138L124.844 39.0548C125.252 40.4828 126.459 41.4518 128.414 41.4518C130.403 41.4518 131.406 40.4318 131.406 39.0718C131.406 37.6438 130.148 37.0998 128.329 36.5218C126.34 35.8758 124.555 35.3148 124.555 33.2408C124.555 31.2858 126.136 30.0448 128.159 30.0448C130.114 30.0448 131.406 31.1668 131.984 32.5438L131.219 32.9688C130.777 31.8978 129.859 30.9118 128.159 30.9118C126.51 30.9118 125.473 31.8808 125.473 33.2068C125.473 34.6348 126.68 35.0768 128.38 35.6378C130.488 36.3348 132.324 36.9978 132.324 39.0548C132.324 41.0268 130.777 42.3188 128.414 42.3188ZM139.911 42.3188C136.477 42.3188 133.774 39.5818 133.774 36.1818C133.774 32.7818 136.477 30.0448 139.911 30.0448C143.345 30.0448 146.048 32.7818 146.048 36.1818C146.048 39.5818 143.345 42.3188 139.911 42.3188ZM139.911 41.4518C142.852 41.4518 145.147 39.1058 145.147 36.1818C145.147 33.2578 142.852 30.9118 139.911 30.9118C136.97 30.9118 134.675 33.2578 134.675 36.1818C134.675 39.1058 136.97 41.4518 139.911 41.4518ZM156.153 30.2318H157.054V42.1318H156.255L149.234 31.8978V42.1318H148.333V30.2318H149.115L156.153 40.4658V30.2318ZM168.011 42.1318L166.855 39.1058H160.888L159.732 42.1318H158.78L163.404 30.2318H164.356L168.963 42.1318H168.011ZM161.228 38.2558H166.532L163.88 31.3368L161.228 38.2558ZM171.597 41.2818H177.207V42.1318H170.696V30.2318H171.597V41.2818ZM190.922 30.2318V31.0818H187.182V42.1318H186.264V31.0818H182.524V30.2318H190.922ZM200.306 42.1318L197.45 37.2528H193.693V42.1318H192.792V30.2318H197.484C199.422 30.2318 201.003 31.8128 201.003 33.7508C201.003 35.3658 199.898 36.7258 198.385 37.1338L201.343 42.1318H200.306ZM193.693 31.0818V36.4028H197.484C198.929 36.4028 200.102 35.2128 200.102 33.7508C200.102 32.2718 198.929 31.0818 197.484 31.0818H193.693ZM211.225 42.1318L210.069 39.1058H204.102L202.946 42.1318H201.994L206.618 30.2318H207.57L212.177 42.1318H211.225ZM204.442 38.2558H209.746L207.094 31.3368L204.442 38.2558ZM216.408 42.1318L211.971 30.2318H212.957L216.884 40.9588L220.828 30.2318H221.797L217.36 42.1318H216.408ZM224.423 41.2818H230.373V42.1318H223.522V30.2318H230.288V31.0818H224.423V35.7058H229.863V36.5558H224.423V41.2818ZM233.487 41.2818H239.097V42.1318H232.586V30.2318H233.487V41.2818ZM253.509 42.1318L252.353 39.1058H246.386L245.23 42.1318H244.278L248.902 30.2318H249.854L254.461 42.1318H253.509ZM246.726 38.2558H252.03L249.378 31.3368L246.726 38.2558ZM259.5 42.3188C257.273 42.3188 255.692 41.1968 255.148 39.5138L255.93 39.0548C256.338 40.4828 257.545 41.4518 259.5 41.4518C261.489 41.4518 262.492 40.4318 262.492 39.0718C262.492 37.6438 261.234 37.0998 259.415 36.5218C257.426 35.8758 255.641 35.3148 255.641 33.2408C255.641 31.2858 257.222 30.0448 259.245 30.0448C261.2 30.0448 262.492 31.1668 263.07 32.5438L262.305 32.9688C261.863 31.8978 260.945 30.9118 259.245 30.9118C257.596 30.9118 256.559 31.8808 256.559 33.2068C256.559 34.6348 257.766 35.0768 259.466 35.6378C261.574 36.3348 263.41 36.9978 263.41 39.0548C263.41 41.0268 261.863 42.3188 259.5 42.3188ZM268.83 42.3188C266.603 42.3188 265.022 41.1968 264.478 39.5138L265.26 39.0548C265.668 40.4828 266.875 41.4518 268.83 41.4518C270.819 41.4518 271.822 40.4318 271.822 39.0718C271.822 37.6438 270.564 37.0998 268.745 36.5218C266.756 35.8758 264.971 35.3148 264.971 33.2408C264.971 31.2858 266.552 30.0448 268.575 30.0448C270.53 30.0448 271.822 31.1668 272.4 32.5438L271.635 32.9688C271.193 31.8978 270.275 30.9118 268.575 30.9118C266.926 30.9118 265.889 31.8808 265.889 33.2068C265.889 34.6348 267.096 35.0768 268.796 35.6378C270.904 36.3348 272.74 36.9978 272.74 39.0548C272.74 41.0268 271.193 42.3188 268.83 42.3188ZM274.871 30.2318H275.772V42.1318H274.871V30.2318ZM282.194 42.3188C279.967 42.3188 278.386 41.1968 277.842 39.5138L278.624 39.0548C279.032 40.4828 280.239 41.4518 282.194 41.4518C284.183 41.4518 285.186 40.4318 285.186 39.0718C285.186 37.6438 283.928 37.0998 282.109 36.5218C280.12 35.8758 278.335 35.3148 278.335 33.2408C278.335 31.2858 279.916 30.0448 281.939 30.0448C283.894 30.0448 285.186 31.1668 285.764 32.5438L284.999 32.9688C284.557 31.8978 283.639 30.9118 281.939 30.9118C280.29 30.9118 279.253 31.8808 279.253 33.2068C279.253 34.6348 280.46 35.0768 282.16 35.6378C284.268 36.3348 286.104 36.9978 286.104 39.0548C286.104 41.0268 284.557 42.3188 282.194 42.3188ZM295.196 30.2318V31.0818H291.456V42.1318H290.538V31.0818H286.798V30.2318H295.196Z" fill="white"/>
<path d="M54.4522 0.663086C68.2522 0.663086 78.9522 11.3631 78.9522 24.6631C78.9522 37.9631 68.2522 48.6631 54.4522 48.6631H43.9522V70.6631H27.9522V0.663086H54.4522ZM54.4522 33.6631C59.3522 33.6631 62.9522 29.7631 62.9522 24.6631C62.9522 19.5631 59.3522 15.6631 54.4522 15.6631H43.9522V33.6631H54.4522Z" fill="url(#paint0_linear_240_3)"/>
<path fill-rule="evenodd" clip-rule="evenodd" d="M45.3105 0.663086H27.9522V17.4258L45.3105 0.663086ZM27.9522 18.8159L46.75 0.663086H48.1896L27.9522 20.2061V18.8159ZM27.9522 21.5963V22.9865L51.0688 0.663086H49.6292L27.9522 21.5963ZM52.5083 0.663086L27.9522 24.3767V25.7669L53.9479 0.663086H52.5083ZM55.371 0.678971L27.9522 27.157V28.5472L56.7256 0.761069C56.2779 0.722215 55.8263 0.694749 55.371 0.678971ZM58.0153 0.905756L27.9522 29.9374V31.3276L43.9522 15.8766V15.6631H44.1733L59.2471 1.10642C58.8404 1.02985 58.4297 0.962879 58.0153 0.905756ZM60.4264 1.35779L45.6128 15.6631H47.0524L61.5576 1.65561C61.1845 1.54795 60.8073 1.4486 60.4264 1.35779ZM62.6442 1.99641L48.492 15.6631H49.9316L63.6894 2.37733C63.3451 2.24294 62.9966 2.1159 62.6442 1.99641ZM64.6954 2.79599L51.3711 15.6631H52.8107L65.6644 3.25046C65.3456 3.0923 65.0225 2.94075 64.6954 2.79599ZM66.598 3.73907L54.2503 15.6631H54.4522C54.8478 15.6631 55.2349 15.6885 55.6124 15.7379L67.4976 4.26052C67.2021 4.08064 66.9021 3.90677 66.598 3.73907ZM68.3643 4.81368L56.8008 15.9805C57.1634 16.0823 57.5146 16.2074 57.853 16.3546L69.1992 5.39772C68.9254 5.19747 68.6471 5.00274 68.3643 4.81368ZM70.0027 6.01189L58.792 16.8379C59.0845 17.0136 59.3647 17.2071 59.6317 17.4173L70.7756 6.65575C70.5227 6.43597 70.2651 6.22129 70.0027 6.01189ZM71.5181 7.32889L60.3799 18.0849C60.6142 18.3212 60.8348 18.5722 61.0408 18.8369L72.2304 8.03119C71.998 7.79227 71.7605 7.55812 71.5181 7.32889ZM72.9126 8.76256L61.615 19.6726C61.7931 19.9675 61.9551 20.2752 62.0999 20.5945L73.5646 9.52317C73.3526 9.26511 73.1353 9.01152 72.9126 8.76256ZM74.186 10.3133L62.4892 21.6087C62.6042 21.97 62.6988 22.3429 62.7719 22.7259L74.7764 11.1333C74.5854 10.8557 74.3885 10.5823 74.186 10.3133ZM75.3351 11.9839L62.9293 23.964C62.9445 24.1943 62.9522 24.4274 62.9522 24.6631C62.9522 24.8959 62.9447 25.1262 62.9299 25.3537L75.8615 12.8659C75.6923 12.5678 75.5168 12.2738 75.3351 11.9839ZM76.3542 13.7802L62.6934 26.9722C62.5174 27.7333 62.2549 28.451 61.9158 29.1134L76.8122 14.7281C76.6664 14.4083 76.5137 14.0922 76.3542 13.7802ZM77.2337 15.7112L27.9522 63.3018V64.692L43.9522 49.241V48.6631H44.5506L77.6169 16.7314C77.4967 16.3877 77.3689 16.0475 77.2337 15.7112ZM77.9594 17.7908L45.9902 48.6631H47.4298L78.2584 18.8923C78.1673 18.5216 78.0675 18.1544 77.9594 17.7908ZM78.5104 20.039L48.8693 48.6631H50.3089L78.7113 21.2353C78.6542 20.8332 78.5871 20.4343 78.5104 20.039ZM78.8557 22.486L51.7485 48.6631H53.1881L78.937 23.7976C78.9216 23.3572 78.8944 22.9199 78.8557 22.486ZM78.9468 25.1783L54.6283 48.6625C55.1304 48.6592 55.6283 48.6417 56.1218 48.6104L78.8727 26.6401C78.9117 26.1569 78.9366 25.6695 78.9468 25.1783ZM78.6953 28.2016L57.7174 48.4597C58.3006 48.3863 58.8767 48.2934 59.4449 48.1817L78.385 29.8915C78.5079 29.3353 78.6116 28.7718 78.6953 28.2016ZM77.8921 31.7577L61.3539 47.7284C62.0994 47.5201 62.8292 47.2788 63.5415 47.006L77.1194 33.8941C77.4097 33.1981 77.6678 32.4853 77.8921 31.7577ZM66.2623 45.7687L75.8124 36.5463C73.5847 40.4327 70.2816 43.6345 66.2623 45.7687ZM43.9522 65.9232V64.533L37.6043 70.6631H39.0439L43.9522 65.9232ZM40.4835 70.6631L43.9522 67.3134V68.7036L41.9231 70.6631H40.4835ZM43.3626 70.6631H43.9522V70.0937L43.3626 70.6631ZM36.1647 70.6631L43.9522 63.1428V61.7526L34.7251 70.6631H36.1647ZM33.2856 70.6631L43.9522 60.3625V58.9723L31.846 70.6631H33.2856ZM30.4064 70.6631L43.9522 57.5821V56.1919L28.9668 70.6631H30.4064ZM27.9522 70.2528L43.9522 54.8017V53.4115L27.9522 68.8626V70.2528ZM27.9522 67.4724L43.9522 52.0214V50.6312L27.9522 66.0822V67.4724ZM27.9522 61.9117L57.978 32.916C57.3256 33.2128 56.6244 33.4273 55.8837 33.5483L27.9522 60.5215V61.9117ZM27.9522 59.1313L54.3253 33.6631H52.8857L27.9522 57.7411V59.1313ZM27.9522 56.3509L51.4461 33.6631H50.0065L27.9522 54.9607V56.3509ZM27.9522 53.5706L48.567 33.6631H47.1274L27.9522 52.1804V53.5706ZM27.9522 50.7902L45.6878 33.6631H44.2482L27.9522 49.4V50.7902ZM27.9522 48.0098L43.9522 32.5588V31.1686L27.9522 46.6196V48.0098ZM27.9522 45.2295L43.9522 29.7784V28.3882L27.9522 43.8392V45.2295ZM27.9522 42.4491L43.9522 26.9981V25.6079L27.9522 41.0589V42.4491ZM27.9522 39.6687L43.9522 24.2177V22.8275L27.9522 38.2785V39.6687ZM27.9522 36.8884L43.9522 21.4373V20.0471L27.9522 35.4981V36.8884ZM27.9522 34.108L43.9522 18.657V17.2668L27.9522 32.7178V34.108Z" fill="white"/>
<path fill-rule="evenodd" clip-rule="evenodd" d="M69.9717 45.7694L78.4547 70.6598H95.951L80.9404 26.4221C80.6906 34.5434 76.4441 41.6217 69.9717 45.7694Z" fill="url(#paint1_linear_240_3)"/>
<path fill-rule="evenodd" clip-rule="evenodd" d="M78.952 24.575C78.9521 24.6044 78.9522 24.6338 78.9522 24.6632C78.9522 37.9632 68.2522 48.6632 54.4522 48.6632H53.8711L78.952 24.575Z" fill="#14534F"/>
<path d="M26.0347 0.663086V16.0631H0V0.663086H26.0347Z" fill="url(#paint2_linear_240_3)"/>
<path d="M43.9868 0.663086L27.9522 16.0631V0.663086H43.9868Z" fill="#848484"/>
<defs>
<linearGradient id="paint0_linear_240_3" x1="37" y1="8.67077" x2="66.672" y2="36.7389" gradientUnits="userSpaceOnUse">
<stop stop-color="#898989"/>
<stop offset="0.276042" stop-color="white"/>
<stop offset="0.697917" stop-color="white"/>
<stop offset="1" stop-color="#14534F"/>
</linearGradient>
<linearGradient id="paint1_linear_240_3" x1="86.5" y1="71" x2="76" y2="37.5" gradientUnits="userSpaceOnUse">
<stop stop-color="#61AEAA"/>
<stop offset="1" stop-color="#14534F"/>
</linearGradient>
<linearGradient id="paint2_linear_240_3" x1="-3.06807e-07" y1="1" x2="26" y2="16" gradientUnits="userSpaceOnUse">
<stop stop-color="white"/>
<stop offset="1" stop-color="#575757"/>
</linearGradient>
</defs>
</svg>
